<?xml version="1.0" encoding="UTF-8" standalone="no" ?>
<svg xmlns="http://www.w3.org/2000/svg" width="18.960px" height="15.112px" viewBox="0 -685 1047.6 835" xmlns:xlink="http://www.w3.org/1999/xlink"><defs><path id="MJX-8-NCM-DS-2119" d="M599 495C599 565 572 615 518 644C469 671 410 685 342 685L53 685C28 685 16 678 16 663C16 649 26 642 47 642C95 642 98 638 98 590L98 95C98 48 95 43 49 43C27 43 16 36 16 22C16 4 30 0 53 0L318 0C342 0 354 7 354 22C354 36 344 43 323 43C271 43 267 45 267 95L267 304C280 304 287 304 288 303L323 303C470 303 599 360 599 495M438 631C517 610 557 565 557 495C557 428 516 382 435 359C454 390 464 436 464 496C464 556 455 601 438 631M421 496C421 429 410 387 388 369C370 354 345 347 312 347L267 347L267 593C267 630 279 642 322 642C409 642 421 591 421 496M134 642L233 642C227 631 224 616 224 596L224 93C224 72 226 55 230 43L134 43C138 55 140 72 140 93L140 592C140 613 138 630 134 642Z"/><path id="MJX-8-NCM-N-31" d="M269 666C228 624 168 603 89 603L89 564C141 564 184 572 217 588L217 82C217 64 213 52 204 47C195 42 170 39 130 39L95 39L95 0C120 2 174 3 257 3C340 3 394 2 419 0L419 39L384 39C343 39 318 42 310 47C302 52 297 64 297 82L297 636C297 660 295 666 269 666Z"/></defs><g stroke="#000000" fill="#000000" stroke-width="0" transform="scale(1,-1)"><g data-mml-node="math" data-latex="\mathbb{P}_1" data-semantic-structure="(2 0 1)"><g data-mml-node="msub" data-latex="\mathbb{P}_1 " data-semantic-type="subscript" data-semantic-role="numbersetletter" data-semantic-annotation="depth:1" data-semantic-id="2" data-semantic-children="0,1" data-semantic-attributes="latex:\mathbb{P}_1" data-semantic-owns="0 1" aria-level="0" data-speech-node="true"><g data-mml-node="TeXAtom" data-mjx-texclass="ORD" data-latex="\mathbb{P}"><g data-mml-node="mi" data-latex="P" data-semantic-type="identifier" data-semantic-role="numbersetletter" data-semantic-font="double-struck" data-semantic-annotation="nemeth:number;depth:2" data-semantic-id="0" data-semantic-parent="2" data-semantic-attributes="latex:\mathbb{P};texclass:ORD" aria-level="1" data-speech-node="true"><use data-c="2119" xlink:href="#MJX-8-NCM-DS-2119" xmlns:xlink="http://www.w3.org/1999/xlink"/></g></g><g data-mml-node="mn" transform="translate(644,-150) scale(0.707)" data-latex="1" data-semantic-type="number" data-semantic-role="integer" data-semantic-font="normal" data-semantic-annotation="clearspeak:simple;depth:2" data-semantic-id="1" data-semantic-parent="2" data-semantic-attributes="latex:1" aria-level="1" data-speech-node="true"><use data-c="31" xlink:href="#MJX-8-NCM-N-31" xmlns:xlink="http://www.w3.org/1999/xlink"/></g></g></g></g></svg>